<svg xmlns="http://www.w3.org/2000/svg" width="3200" height="800" viewBox="0 0 3200 800">
<defs>
  <marker id="arrow" markerWidth="12" markerHeight="12" refX="10" refY="6" orient="auto" markerUnits="userSpaceOnUse">
    <path d="M2,2 L10,6 L2,10 Z" fill="#0F172A"/>
  </marker>
</defs>
<style>text { font-family: Arial, Helvetica, sans-serif; }</style>
<rect width="100%" height="100%" fill="#FFFFFF"/>
<rect x="60" y="50" width="470" height="720" rx="18" fill="#FFFFFF" stroke="#3B82F6" stroke-width="2.5" stroke-dasharray="12 10" /><rect x="570" y="50" width="2040" height="720" rx="18" fill="#FFFFFF" stroke="#22C55E" stroke-width="2.5" stroke-dasharray="12 10" /><rect x="2660" y="50" width="470" height="720" rx="18" fill="#FFFFFF" stroke="#F97316" stroke-width="2.5" stroke-dasharray="12 10" /><text x="295" y="90" text-anchor="middle" dominant-baseline="middle" font-size="34" font-weight="800" fill="#111827" >Backbone</text><text x="295" y="130" text-anchor="middle" dominant-baseline="middle" font-size="24" font-weight="500" fill="#475569" >Feature Extraction</text><text x="1385" y="90" text-anchor="middle" dominant-baseline="middle" font-size="34" font-weight="800" fill="#111827" >Neck</text><text x="1385" y="130" text-anchor="middle" dominant-baseline="middle" font-size="24" font-weight="500" fill="#475569" >Feature Fusion (FPN + PAN)</text><text x="2895" y="90" text-anchor="middle" dominant-baseline="middle" font-size="34" font-weight="800" fill="#111827" >Head</text><text x="2895" y="130" text-anchor="middle" dominant-baseline="middle" font-size="24" font-weight="500" fill="#475569" >Detect Head</text><text x="155" y="215" text-anchor="middle" dominant-baseline="middle" font-size="22" font-weight="800" fill="#111827" >Input Image</text><text x="155" y="247" text-anchor="middle" dominant-baseline="middle" font-size="19" font-weight="500" fill="#475569" >640×640×3</text><rect x="110" y="310" width="160" height="118" rx="0" fill="#E2E8F0" stroke="#CBD5E1" stroke-width="1.5" /><rect x="97" y="297" width="160" height="118" rx="0" fill="#EFF6FF" stroke="#CBD5E1" stroke-width="1.5" /><rect x="85" y="285" width="160" height="118" rx="4" fill="#BFDBFE" stroke="#64748B" stroke-width="2" /><polygon points="93,375 143,320 195,375" fill="#1E3A8A" opacity="0.75"/><polygon points="157,375 207,337 240,375" fill="#1E40AF" opacity="0.75"/><polygon points="85,375 140,353 195,375" fill="#0F766E" opacity="0.8"/><rect x="85" y="375" width="160" height="28" fill="#0EA5E9" opacity="0.55"/><line x1="245" y1="344" x2="270" y2="344" stroke="#0F172A" stroke-width="3" stroke-linecap="round" marker-end="url(#arrow)"/><rect x="270" y="145" width="170" height="38" rx="10" fill="#DBEAFE" stroke="#3B82F6" stroke-width="2.2" /><text x="355.0" y="164.0" text-anchor="middle" dominant-baseline="middle" font-size="18" font-weight="700" fill="#111827" >Conv 3×3 s=2</text><line x1="355.0" y1="183" x2="355.0" y2="187" stroke="#0F172A" stroke-width="2.3" stroke-linecap="round" marker-end="url(#arrow)"/><rect x="270" y="192" width="170" height="38" rx="10" fill="#DBEAFE" stroke="#3B82F6" stroke-width="2.2" /><text x="355.0" y="211.0" text-anchor="middle" dominant-baseline="middle" font-size="18" font-weight="700" fill="#111827" >Conv 3×3 s=2</text><line x1="355.0" y1="230" x2="355.0" y2="234" stroke="#0F172A" stroke-width="2.3" stroke-linecap="round" marker-end="url(#arrow)"/><rect x="270" y="239" width="170" height="38" rx="10" fill="#FEF3C7" stroke="#F59E0B" stroke-width="2.2" /><text x="355.0" y="258.0" text-anchor="middle" dominant-baseline="middle" font-size="18" font-weight="700" fill="#111827" >C3k2</text><line x1="355.0" y1="277" x2="355.0" y2="281" stroke="#0F172A" stroke-width="2.3" stroke-linecap="round" marker-end="url(#arrow)"/><rect x="270" y="286" width="170" height="38" rx="10" fill="#DBEAFE" stroke="#3B82F6" stroke-width="2.2" /><text x="355.0" y="305.0" text-anchor="middle" dominant-baseline="middle" font-size="18" font-weight="700" fill="#111827" >Conv 3×3 s=2</text><line x1="355.0" y1="324" x2="355.0" y2="328" stroke="#0F172A" stroke-width="2.3" stroke-linecap="round" marker-end="url(#arrow)"/><rect x="270" y="333" width="170" height="38" rx="10" fill="#FEF3C7" stroke="#F59E0B" stroke-width="2.2" /><text x="355.0" y="352.0" text-anchor="middle" dominant-baseline="middle" font-size="18" font-weight="700" fill="#111827" >C3k2</text><line x1="355.0" y1="371" x2="355.0" y2="393" stroke="#0F172A" stroke-width="2.3" stroke-linecap="round" marker-end="url(#arrow)"/><rect x="270" y="398" width="170" height="38" rx="10" fill="#DBEAFE" stroke="#3B82F6" stroke-width="2.2" /><text x="355.0" y="417.0" text-anchor="middle" dominant-baseline="middle" font-size="18" font-weight="700" fill="#111827" >Conv 3×3 s=2</text><line x1="355.0" y1="436" x2="355.0" y2="440" stroke="#0F172A" stroke-width="2.3" stroke-linecap="round" marker-end="url(#arrow)"/><rect x="270" y="445" width="170" height="38" rx="10" fill="#FEF3C7" stroke="#F59E0B" stroke-width="2.2" /><text x="355.0" y="464.0" text-anchor="middle" dominant-baseline="middle" font-size="18" font-weight="700" fill="#111827" >C3k2</text><line x1="355.0" y1="483" x2="355.0" y2="505" stroke="#0F172A" stroke-width="2.3" stroke-linecap="round" marker-end="url(#arrow)"/><rect x="270" y="510" width="170" height="38" rx="10" fill="#DBEAFE" stroke="#3B82F6" stroke-width="2.2" /><text x="355.0" y="529.0" text-anchor="middle" dominant-baseline="middle" font-size="18" font-weight="700" fill="#111827" >Conv 3×3 s=2</text><line x1="355.0" y1="548" x2="355.0" y2="552" stroke="#0F172A" stroke-width="2.3" stroke-linecap="round" marker-end="url(#arrow)"/><rect x="270" y="557" width="170" height="38" rx="10" fill="#FEF3C7" stroke="#F59E0B" stroke-width="2.2" /><text x="355.0" y="576.0" text-anchor="middle" dominant-baseline="middle" font-size="18" font-weight="700" fill="#111827" >C3k2</text><line x1="355.0" y1="595" x2="355.0" y2="599" stroke="#0F172A" stroke-width="2.3" stroke-linecap="round" marker-end="url(#arrow)"/><rect x="270" y="604" width="170" height="38" rx="10" fill="#DCFCE7" stroke="#22C55E" stroke-width="2.2" /><text x="355.0" y="623.0" text-anchor="middle" dominant-baseline="middle" font-size="18" font-weight="700" fill="#111827" >SPPF</text><line x1="355.0" y1="642" x2="355.0" y2="646" stroke="#0F172A" stroke-width="2.3" stroke-linecap="round" marker-end="url(#arrow)"/><rect x="270" y="651" width="170" height="38" rx="10" fill="#EDE9FE" stroke="#8B5CF6" stroke-width="2.2" /><text x="355.0" y="670.0" text-anchor="middle" dominant-baseline="middle" font-size="18" font-weight="700" fill="#111827" >C2PSA</text><text x="465" y="327" text-anchor="start" dominant-baseline="middle" font-size="22" font-weight="800" fill="#111827" >P3 / 8</text><text x="465" y="358" text-anchor="start" dominant-baseline="middle" font-size="19" font-weight="500" fill="#475569" >80×80×C</text><path d="M 440 352.0 L 452 352.0 L 452 352 L 620 352" fill="none" stroke="#0F172A" stroke-width="3" stroke-linejoin="round" stroke-linecap="round" marker-end="url(#arrow)"/><text x="465" y="439" text-anchor="start" dominant-baseline="middle" font-size="22" font-weight="800" fill="#111827" >P4 / 16</text><text x="465" y="470" text-anchor="start" dominant-baseline="middle" font-size="19" font-weight="500" fill="#475569" >40×40×C</text><path d="M 440 464.0 L 452 464.0 L 452 464 L 620 464" fill="none" stroke="#0F172A" stroke-width="3" stroke-linejoin="round" stroke-linecap="round" marker-end="url(#arrow)"/><text x="465" y="645" text-anchor="start" dominant-baseline="middle" font-size="22" font-weight="800" fill="#111827" >P5 / 32</text><text x="465" y="676" text-anchor="start" dominant-baseline="middle" font-size="19" font-weight="500" fill="#475569" >20×20×C</text><path d="M 440 670.0 L 452 670.0 L 452 670 L 620 670" fill="none" stroke="#0F172A" stroke-width="3" stroke-linejoin="round" stroke-linecap="round" marker-end="url(#arrow)"/><line x1="620" y1="352" x2="1300" y2="352" stroke="#94A3B8" stroke-width="2.2" stroke-linecap="round"/><line x1="620" y1="464" x2="850" y2="464" stroke="#94A3B8" stroke-width="2.2" stroke-linecap="round"/><line x1="620" y1="670" x2="1900" y2="670" stroke="#94A3B8" stroke-width="2.2" stroke-linecap="round"/><line x1="1065" y1="464" x2="1750" y2="464" stroke="#94A3B8" stroke-width="2.2" stroke-linecap="round"/><path d="M 620 670 L 650 670 L 650 464 L 680 464" fill="none" stroke="#0F172A" stroke-width="3" stroke-linejoin="round" stroke-linecap="round" marker-end="url(#arrow)"/><rect x="680" y="442.0" width="110" height="44" rx="10" fill="#DCFCE7" stroke="#22C55E" stroke-width="2.2" /><text x="735.0" y="464.0" text-anchor="middle" dominant-baseline="middle" font-size="17" font-weight="700" fill="#111827" >Upsample</text><text x="735" y="502" text-anchor="middle" dominant-baseline="middle" font-size="15" font-weight="600" fill="#475569" >×2</text><line x1="790" y1="464" x2="850" y2="464" stroke="#0F172A" stroke-width="3" stroke-linecap="round" marker-end="url(#arrow)"/><rect x="850" y="442.0" width="110" height="44" rx="10" fill="#FEF3C7" stroke="#F59E0B" stroke-width="2.2" /><text x="905.0" y="464.0" text-anchor="middle" dominant-baseline="middle" font-size="17" font-weight="700" fill="#111827" >Concat</text><line x1="960" y1="464" x2="1000" y2="464" stroke="#0F172A" stroke-width="3" stroke-linecap="round" marker-end="url(#arrow)"/><rect x="1000" y="442.0" width="110" height="44" rx="10" fill="#FEF3C7" stroke="#F59E0B" stroke-width="2.2" /><text x="1055.0" y="464.0" text-anchor="middle" dominant-baseline="middle" font-size="17" font-weight="700" fill="#111827" >C3k2</text><text x="1055" y="516" text-anchor="middle" dominant-baseline="middle" font-size="17" font-weight="700" fill="#475569" >N4</text><path d="M 1110 464 L 1130 464 L 1130 352 L 1150 352" fill="none" stroke="#0F172A" stroke-width="3" stroke-linejoin="round" stroke-linecap="round" marker-end="url(#arrow)"/><rect x="1150" y="330.0" width="110" height="44" rx="10" fill="#DCFCE7" stroke="#22C55E" stroke-width="2.2" /><text x="1205.0" y="352.0" text-anchor="middle" dominant-baseline="middle" font-size="17" font-weight="700" fill="#111827" >Upsample</text><text x="1205" y="390" text-anchor="middle" dominant-baseline="middle" font-size="15" font-weight="600" fill="#475569" >×2</text><line x1="1260" y1="352" x2="1300" y2="352" stroke="#0F172A" stroke-width="3" stroke-linecap="round" marker-end="url(#arrow)"/><rect x="1300" y="330.0" width="110" height="44" rx="10" fill="#FEF3C7" stroke="#F59E0B" stroke-width="2.2" /><text x="1355.0" y="352.0" text-anchor="middle" dominant-baseline="middle" font-size="17" font-weight="700" fill="#111827" >Concat</text><line x1="1410" y1="352" x2="1450" y2="352" stroke="#0F172A" stroke-width="3" stroke-linecap="round" marker-end="url(#arrow)"/><rect x="1450" y="330.0" width="110" height="44" rx="10" fill="#FEF3C7" stroke="#F59E0B" stroke-width="2.2" /><text x="1505.0" y="352.0" text-anchor="middle" dominant-baseline="middle" font-size="17" font-weight="700" fill="#111827" >C3k2</text><text x="1505" y="304" text-anchor="middle" dominant-baseline="middle" font-size="19" font-weight="800" fill="#111827" >P3_out</text><path d="M 1560 352 L 1580 352 L 1580 464 L 1600 464" fill="none" stroke="#0F172A" stroke-width="3" stroke-linejoin="round" stroke-linecap="round" marker-end="url(#arrow)"/><rect x="1600" y="442.0" width="125" height="44" rx="10" fill="#FFE4E6" stroke="#FB7185" stroke-width="2.2" /><text x="1662.5" y="464.0" text-anchor="middle" dominant-baseline="middle" font-size="16" font-weight="700" fill="#111827" >Downsample</text><line x1="1725" y1="464" x2="1750" y2="464" stroke="#0F172A" stroke-width="3" stroke-linecap="round" marker-end="url(#arrow)"/><rect x="1750" y="442.0" width="110" height="44" rx="10" fill="#FEF3C7" stroke="#F59E0B" stroke-width="2.2" /><text x="1805.0" y="464.0" text-anchor="middle" dominant-baseline="middle" font-size="17" font-weight="700" fill="#111827" >Concat</text><line x1="1860" y1="464" x2="1900" y2="464" stroke="#0F172A" stroke-width="3" stroke-linecap="round" marker-end="url(#arrow)"/><rect x="1900" y="442.0" width="110" height="44" rx="10" fill="#FEF3C7" stroke="#F59E0B" stroke-width="2.2" /><text x="1955.0" y="464.0" text-anchor="middle" dominant-baseline="middle" font-size="17" font-weight="700" fill="#111827" >C3k2</text><text x="1955" y="416" text-anchor="middle" dominant-baseline="middle" font-size="19" font-weight="800" fill="#111827" >P4_out</text><path d="M 2010 464 L 2030 464 L 2030 670 L 2050 670" fill="none" stroke="#0F172A" stroke-width="3" stroke-linejoin="round" stroke-linecap="round" marker-end="url(#arrow)"/><rect x="2050" y="648.0" width="125" height="44" rx="10" fill="#FFE4E6" stroke="#FB7185" stroke-width="2.2" /><text x="2112.5" y="670.0" text-anchor="middle" dominant-baseline="middle" font-size="16" font-weight="700" fill="#111827" >Downsample</text><line x1="2175" y1="670" x2="2205" y2="670" stroke="#0F172A" stroke-width="3" stroke-linecap="round" marker-end="url(#arrow)"/><rect x="2205" y="648.0" width="110" height="44" rx="10" fill="#FEF3C7" stroke="#F59E0B" stroke-width="2.2" /><text x="2260.0" y="670.0" text-anchor="middle" dominant-baseline="middle" font-size="17" font-weight="700" fill="#111827" >Concat</text><line x1="2315" y1="670" x2="2355" y2="670" stroke="#0F172A" stroke-width="3" stroke-linecap="round" marker-end="url(#arrow)"/><rect x="2355" y="648.0" width="110" height="44" rx="10" fill="#FEF3C7" stroke="#F59E0B" stroke-width="2.2" /><text x="2410.0" y="670.0" text-anchor="middle" dominant-baseline="middle" font-size="17" font-weight="700" fill="#111827" >C3k2</text><text x="2410" y="622" text-anchor="middle" dominant-baseline="middle" font-size="19" font-weight="800" fill="#111827" >P5_out</text><line x1="1560" y1="352" x2="2710" y2="352" stroke="#0F172A" stroke-width="3" stroke-linecap="round" marker-end="url(#arrow)"/><polygon points="2725,324 2747,302 2825,302 2803,324" fill="#BAE6FD" stroke="#0284C7" stroke-width="2"/><polygon points="2803,324 2825,302 2825,358 2803,380" fill="#38BDF8" stroke="#0284C7" stroke-width="2"/><rect x="2725" y="324" width="78" height="56" rx="0" fill="#7DD3FC" stroke="#0284C7" stroke-width="2" /><line x1="2744.5" y1="324" x2="2744.5" y2="380" stroke="#0284C7" stroke-opacity="0.35" stroke-width="1.2"/><line x1="2764.0" y1="324" x2="2764.0" y2="380" stroke="#0284C7" stroke-opacity="0.35" stroke-width="1.2"/><line x1="2783.5" y1="324" x2="2783.5" y2="380" stroke="#0284C7" stroke-opacity="0.35" stroke-width="1.2"/><line x1="2725" y1="342.6666666666667" x2="2803" y2="342.6666666666667" stroke="#0284C7" stroke-opacity="0.35" stroke-width="1.2"/><line x1="2725" y1="361.3333333333333" x2="2803" y2="361.3333333333333" stroke="#0284C7" stroke-opacity="0.35" stroke-width="1.2"/><line x1="2825" y1="352" x2="2848" y2="352" stroke="#0F172A" stroke-width="3" stroke-linecap="round" marker-end="url(#arrow)"/><rect x="2860" y="297" width="140" height="110" rx="10" fill="#FFFFFF" stroke="#CBD5E1" stroke-width="2" /><text x="2930" y="324" text-anchor="middle" dominant-baseline="middle" font-size="18" font-weight="800" fill="#111827" >Detect Head</text><text x="2886" y="360" text-anchor="start" dominant-baseline="middle" font-size="17" font-weight="500" fill="#111827" >• BBox Reg.</text><text x="2886" y="386" text-anchor="start" dominant-baseline="middle" font-size="17" font-weight="500" fill="#111827" >• Classify</text><line x1="3000" y1="352" x2="3035" y2="352" stroke="#0F172A" stroke-width="3" stroke-linecap="round" marker-end="url(#arrow)"/><text x="3055" y="334" text-anchor="start" dominant-baseline="middle" font-size="21" font-weight="800" fill="#111827" >P3 / 8</text><text text-anchor="start" font-size="19" font-weight="500" fill="#475569" ><tspan x="3055" y="362.1">Small</tspan><tspan x="3055" y="385.9">Objects</tspan></text><line x1="2010" y1="464" x2="2710" y2="464" stroke="#0F172A" stroke-width="3" stroke-linecap="round" marker-end="url(#arrow)"/><polygon points="2725,436 2747,414 2825,414 2803,436" fill="#BAE6FD" stroke="#0284C7" stroke-width="2"/><polygon points="2803,436 2825,414 2825,470 2803,492" fill="#38BDF8" stroke="#0284C7" stroke-width="2"/><rect x="2725" y="436" width="78" height="56" rx="0" fill="#7DD3FC" stroke="#0284C7" stroke-width="2" /><line x1="2744.5" y1="436" x2="2744.5" y2="492" stroke="#0284C7" stroke-opacity="0.35" stroke-width="1.2"/><line x1="2764.0" y1="436" x2="2764.0" y2="492" stroke="#0284C7" stroke-opacity="0.35" stroke-width="1.2"/><line x1="2783.5" y1="436" x2="2783.5" y2="492" stroke="#0284C7" stroke-opacity="0.35" stroke-width="1.2"/><line x1="2725" y1="454.6666666666667" x2="2803" y2="454.6666666666667" stroke="#0284C7" stroke-opacity="0.35" stroke-width="1.2"/><line x1="2725" y1="473.3333333333333" x2="2803" y2="473.3333333333333" stroke="#0284C7" stroke-opacity="0.35" stroke-width="1.2"/><line x1="2825" y1="464" x2="2848" y2="464" stroke="#0F172A" stroke-width="3" stroke-linecap="round" marker-end="url(#arrow)"/><rect x="2860" y="409" width="140" height="110" rx="10" fill="#FFFFFF" stroke="#CBD5E1" stroke-width="2" /><text x="2930" y="436" text-anchor="middle" dominant-baseline="middle" font-size="18" font-weight="800" fill="#111827" >Detect Head</text><text x="2886" y="472" text-anchor="start" dominant-baseline="middle" font-size="17" font-weight="500" fill="#111827" >• BBox Reg.</text><text x="2886" y="498" text-anchor="start" dominant-baseline="middle" font-size="17" font-weight="500" fill="#111827" >• Classify</text><line x1="3000" y1="464" x2="3035" y2="464" stroke="#0F172A" stroke-width="3" stroke-linecap="round" marker-end="url(#arrow)"/><text x="3055" y="446" text-anchor="start" dominant-baseline="middle" font-size="21" font-weight="800" fill="#111827" >P4 / 16</text><text text-anchor="start" font-size="19" font-weight="500" fill="#475569" ><tspan x="3055" y="474.1">Medium</tspan><tspan x="3055" y="497.9">Objects</tspan></text><line x1="2465" y1="670" x2="2710" y2="670" stroke="#0F172A" stroke-width="3" stroke-linecap="round" marker-end="url(#arrow)"/><polygon points="2725,642 2747,620 2825,620 2803,642" fill="#BAE6FD" stroke="#0284C7" stroke-width="2"/><polygon points="2803,642 2825,620 2825,676 2803,698" fill="#38BDF8" stroke="#0284C7" stroke-width="2"/><rect x="2725" y="642" width="78" height="56" rx="0" fill="#7DD3FC" stroke="#0284C7" stroke-width="2" /><line x1="2744.5" y1="642" x2="2744.5" y2="698" stroke="#0284C7" stroke-opacity="0.35" stroke-width="1.2"/><line x1="2764.0" y1="642" x2="2764.0" y2="698" stroke="#0284C7" stroke-opacity="0.35" stroke-width="1.2"/><line x1="2783.5" y1="642" x2="2783.5" y2="698" stroke="#0284C7" stroke-opacity="0.35" stroke-width="1.2"/><line x1="2725" y1="660.6666666666666" x2="2803" y2="660.6666666666666" stroke="#0284C7" stroke-opacity="0.35" stroke-width="1.2"/><line x1="2725" y1="679.3333333333334" x2="2803" y2="679.3333333333334" stroke="#0284C7" stroke-opacity="0.35" stroke-width="1.2"/><line x1="2825" y1="670" x2="2848" y2="670" stroke="#0F172A" stroke-width="3" stroke-linecap="round" marker-end="url(#arrow)"/><rect x="2860" y="615" width="140" height="110" rx="10" fill="#FFFFFF" stroke="#CBD5E1" stroke-width="2" /><text x="2930" y="642" text-anchor="middle" dominant-baseline="middle" font-size="18" font-weight="800" fill="#111827" >Detect Head</text><text x="2886" y="678" text-anchor="start" dominant-baseline="middle" font-size="17" font-weight="500" fill="#111827" >• BBox Reg.</text><text x="2886" y="704" text-anchor="start" dominant-baseline="middle" font-size="17" font-weight="500" fill="#111827" >• Classify</text><line x1="3000" y1="670" x2="3035" y2="670" stroke="#0F172A" stroke-width="3" stroke-linecap="round" marker-end="url(#arrow)"/><text x="3055" y="652" text-anchor="start" dominant-baseline="middle" font-size="21" font-weight="800" fill="#111827" >P5 / 32</text><text text-anchor="start" font-size="19" font-weight="500" fill="#475569" ><tspan x="3055" y="680.1">Large</tspan><tspan x="3055" y="703.9">Objects</tspan></text></svg>